<svg xmlns="http://www.w3.org/2000/svg" viewBox="0 0 21.763 27.111">
  <defs>
    <style>
      .cls-1 {
        fill: #2ca647;
      }
    </style>
  </defs>
  <g id="font" transform="translate(0 0)">
    <path id="Path_49" data-name="Path 49" class="cls-1" d="M2.793.877H1.541V.4A.383.383,0,0,0,1.175,0,.383.383,0,0,0,.809.4v.48H.366a.383.383,0,0,0-.366.4.383.383,0,0,0,.366.4H.809V3.029a.383.383,0,0,0,.366.4.382.382,0,0,0,.366-.4V1.671H2.793a.382.382,0,0,0,.366-.4.383.383,0,0,0-.366-.4Zm0,0" transform="translate(0 0)"/>
    <path id="Path_50" data-name="Path 50" class="cls-1" d="M381.4,1.671h1.251V3.029a.367.367,0,1,0,.732,0V1.671h.443a.382.382,0,0,0,.366-.4.383.383,0,0,0-.366-.4h-.443V.4a.367.367,0,1,0-.732,0v.48H381.4a.383.383,0,0,0-.366.4.383.383,0,0,0,.366.4Zm0,0" transform="translate(-362.427 0)"/>
    <path id="Path_51" data-name="Path 51" class="cls-1" d="M383.824,449.056h-.443V447.7a.367.367,0,1,0-.732,0v1.357H381.4a.4.4,0,0,0,0,.794h1.252v.48a.367.367,0,1,0,.732,0v-.48h.443a.4.4,0,0,0,0-.794Zm0,0" transform="translate(-362.427 -423.616)"/>
    <path id="Path_52" data-name="Path 52" class="cls-1" d="M2.793,449.056H1.541V447.7a.383.383,0,0,0-.366-.4.383.383,0,0,0-.366.4v1.357H.366a.4.4,0,0,0,0,.794H.809v.48a.383.383,0,0,0,.366.4.383.383,0,0,0,.366-.4v-.48H2.793a.4.4,0,0,0,0-.794Zm0,0" transform="translate(0 -423.616)"/>
    <path id="Path_53" data-name="Path 53" class="cls-1" d="M96.14,82.836h-8.9a.4.4,0,0,0,0,.794h8.531V88.1h-.885V86.742a.383.383,0,0,0-.366-.4H91.287a.383.383,0,0,0-.366.4V99.023a.383.383,0,0,0,.366.4h1.252v.96H86.8v-.96h1.251a.383.383,0,0,0,.366-.4V86.742a.382.382,0,0,0-.366-.4H84.816a.383.383,0,0,0-.366.4V88.1h-.885V83.63h2.162a.4.4,0,0,0,0-.794H83.2a.383.383,0,0,0-.366.4V88.5a.383.383,0,0,0,.366.4h1.618a.383.383,0,0,0,.366-.4V87.139h2.5V98.626H86.434a.383.383,0,0,0-.366.4v1.754a.383.383,0,0,0,.366.4H92.9a.383.383,0,0,0,.366-.4V99.023a.383.383,0,0,0-.366-.4H91.653V87.139h2.5V88.5a.382.382,0,0,0,.366.4H96.14a.383.383,0,0,0,.366-.4V83.233A.383.383,0,0,0,96.14,82.836Zm0,0" transform="translate(-78.788 -78.45)"/>
    <path id="Path_54" data-name="Path 54" class="cls-1" d="M91.483,17.361H92.7a.4.4,0,0,0,0-.794H91.483a.4.4,0,0,0,0,.794Zm0,0" transform="translate(-86.668 -15.689)"/>
    <path id="Path_55" data-name="Path 55" class="cls-1" d="M166.03,17.361h1.213a.4.4,0,0,0,0-.794H166.03a.4.4,0,0,0,0,.794Zm0,0" transform="translate(-157.575 -15.689)"/>
    <path id="Path_56" data-name="Path 56" class="cls-1" d="M315.132,17.361h1.213a.4.4,0,0,0,0-.794h-1.213a.4.4,0,0,0,0,.794Zm0,0" transform="translate(-299.398 -15.689)"/>
    <path id="Path_57" data-name="Path 57" class="cls-1" d="M240.585,17.361H241.8a.4.4,0,0,0,0-.794h-1.213a.4.4,0,0,0,0,.794Zm0,0" transform="translate(-228.49 -15.689)"/>
    <path id="Path_58" data-name="Path 58" class="cls-1" d="M92.7,480.43H91.483a.4.4,0,0,0,0,.794H92.7a.4.4,0,0,0,0-.794Zm0,0" transform="translate(-86.669 -454.991)"/>
    <path id="Path_59" data-name="Path 59" class="cls-1" d="M167.244,480.43h-1.213a.4.4,0,0,0,0,.794h1.213a.4.4,0,0,0,0-.794Zm0,0" transform="translate(-157.576 -454.991)"/>
    <path id="Path_60" data-name="Path 60" class="cls-1" d="M316.345,480.43h-1.213a.4.4,0,0,0,0,.794h1.213a.4.4,0,0,0,0-.794Zm0,0" transform="translate(-299.397 -454.991)"/>
    <path id="Path_61" data-name="Path 61" class="cls-1" d="M241.794,480.43h-1.213a.4.4,0,0,0,0,.794h1.213a.4.4,0,0,0,0-.794Zm0,0" transform="translate(-228.486 -454.991)"/>
    <path id="Path_62" data-name="Path 62" class="cls-1" d="M414.9,87.37a.367.367,0,1,0-.732,0v1.316a.367.367,0,1,0,.732,0Zm0,0" transform="translate(-393.943 -82.367)"/>
    <path id="Path_63" data-name="Path 63" class="cls-1" d="M414.9,161.917a.367.367,0,1,0-.732,0v1.316a.367.367,0,1,0,.732,0Zm0,0" transform="translate(-393.943 -152.967)"/>
    <path id="Path_64" data-name="Path 64" class="cls-1" d="M414.9,311.018a.367.367,0,1,0-.732,0v1.316a.367.367,0,1,0,.732,0Zm0,0" transform="translate(-393.943 -294.173)"/>
    <path id="Path_65" data-name="Path 65" class="cls-1" d="M414.53,385.18a.383.383,0,0,0-.366.4v1.316a.367.367,0,1,0,.732,0v-1.316A.382.382,0,0,0,414.53,385.18Zm0,0" transform="translate(-393.943 -364.784)"/>
    <path id="Path_66" data-name="Path 66" class="cls-1" d="M414.9,236.467a.367.367,0,1,0-.732,0v1.316a.367.367,0,1,0,.732,0Zm0,0" transform="translate(-393.943 -223.57)"/>
    <path id="Path_67" data-name="Path 67" class="cls-1" d="M16.933,89.082a.383.383,0,0,0,.366-.4V87.369a.367.367,0,1,0-.732,0v1.316A.382.382,0,0,0,16.933,89.082Zm0,0" transform="translate(-15.758 -82.367)"/>
    <path id="Path_68" data-name="Path 68" class="cls-1" d="M16.566,163.232a.367.367,0,1,0,.732,0v-1.316a.367.367,0,1,0-.732,0Zm0,0" transform="translate(-15.758 -152.967)"/>
    <path id="Path_69" data-name="Path 69" class="cls-1" d="M16.566,312.334a.367.367,0,1,0,.732,0v-1.316a.367.367,0,1,0-.732,0Zm0,0" transform="translate(-15.758 -294.174)"/>
    <path id="Path_70" data-name="Path 70" class="cls-1" d="M16.566,386.892a.367.367,0,1,0,.732,0v-1.316a.367.367,0,1,0-.732,0Zm0,0" transform="translate(-15.758 -364.784)"/>
    <path id="Path_71" data-name="Path 71" class="cls-1" d="M16.566,237.783a.367.367,0,1,0,.732,0v-1.316a.367.367,0,1,0-.732,0Zm0,0" transform="translate(-15.758 -223.57)"/>
  </g>
</svg>
