<svg xmlns="http://www.w3.org/2000/svg" viewBox="0 0 27.334 20.176">
  <defs>
    <style>
      .cls-1 {
        fill: #2ca647;
      }
    </style>
  </defs>
  <g id="list-button_1_" data-name="list-button (1)" transform="translate(0 0)">
    <g id="Group_83" data-name="Group 83" transform="translate(0 0)">
      <path id="Path_74" data-name="Path 74" class="cls-1" d="M2.888,56.132A2.888,2.888,0,1,0,5.776,59.02,2.891,2.891,0,0,0,2.888,56.132Zm0,4.383A1.495,1.495,0,1,1,4.383,59.02,1.5,1.5,0,0,1,2.888,60.515Z" transform="translate(0 -56.132)"/>
      <path id="Path_75" data-name="Path 75" class="cls-1" d="M111.008,86.287h18.114a1.106,1.106,0,1,0,0-2.212H111.008a1.106,1.106,0,1,0,0,2.212Z" transform="translate(-102.895 -82.293)"/>
      <path id="Path_76" data-name="Path 76" class="cls-1" d="M2.888,169.06a2.888,2.888,0,1,0,2.888,2.888A2.891,2.891,0,0,0,2.888,169.06Zm0,4.383a1.495,1.495,0,1,1,1.495-1.495A1.5,1.5,0,0,1,2.888,173.443Z" transform="translate(0 -161.86)"/>
      <path id="Path_77" data-name="Path 77" class="cls-1" d="M129.122,197H111.008a1.106,1.106,0,0,0,0,2.213h18.114a1.106,1.106,0,0,0,0-2.213Z" transform="translate(-102.895 -188.019)"/>
      <path id="Path_78" data-name="Path 78" class="cls-1" d="M2.888,281.984a2.888,2.888,0,1,0,2.888,2.888A2.891,2.891,0,0,0,2.888,281.984Zm0,4.383a1.495,1.495,0,1,1,1.495-1.495A1.5,1.5,0,0,1,2.888,286.367Z" transform="translate(0 -267.584)"/>
      <path id="Path_79" data-name="Path 79" class="cls-1" d="M129.122,309.928H111.008a1.106,1.106,0,0,0,0,2.213h18.114a1.106,1.106,0,0,0,0-2.213Z" transform="translate(-102.895 -293.746)"/>
    </g>
  </g>
</svg>
